# xmcd CD database file
#
# Track frame offsets:
#	150
#	16412
#	42385
#	73050
#	108835
#	135645
#	154332
#	179550
#	202370
#
# Disc length: 2855 seconds
#
# Revision: 0
# Processed by: cddbd v1.5.1PL2 Copyright (c) Steve Scherf et al.
# Submitted via: CDex 1.51
#
DISCID=860b2509
DTITLE=Buddy Rich - Plays and Plays and Plays
DYEAR=1977
DGENRE=Jazz
TTITLE0=You Gotta Try
TTITLE1=Time Out
TTITLE2='Round About Midnight
TTITLE3=Tales Of A Rhoda Rat
TTITLE4=No Jive
TTITLE5=Lush Life
TTITLE6=Party Time
TTITLE7=Kong
TTITLE8=Mickey Mouse
EXTD=YEAR: 1977
EXTT0=
EXTT1=
EXTT2=
EXTT3=
EXTT4=
EXTT5=
EXTT6=
EXTT7=
EXTT8=
PLAYORDER=
